<svg xmlns="http://www.w3.org/2000/svg" viewBox="0 0 200 200" fill="none" stroke="#2c3a2f" stroke-width="2.5" stroke-linecap="round" stroke-linejoin="round">

<path d="M90,190 Q95,140 100,90 Q105,140 110,190 Z" fill="#eef2eb" stroke-width="3"/>
<path d="M85,190 L115,190" />
<path d="M90,170 L110,170" />
<path d="M93,150 L107,150" />
<path d="M95,130 L105,130" />
<path d="M97,110 L103,110" />
<path d="M100,90 Q78.34936490538902,57.5 56.69872981077806,65.0" stroke-width="3"/>
<path d="M92.78312163512967,85.83333333333333 L97.78312163512967,77.17307929548895" />
<path d="M92.78312163512967,85.83333333333333 L87.78312163512967,94.49358737117771" />
<path d="M85.56624327025935,81.66666666666667 L90.56624327025935,73.00641262882229" />
<path d="M85.56624327025935,81.66666666666667 L80.56624327025935,90.32692070451105" />
<path d="M78.34936490538902,77.5 L83.34936490538902,68.83974596215562" />
<path d="M78.34936490538902,77.5 L73.34936490538902,86.16025403784438" />
<path d="M71.13248654051871,73.33333333333334 L76.13248654051871,64.67307929548896" />
<path d="M71.13248654051871,73.33333333333334 L66.13248654051871,81.99358737117772" />
<path d="M63.91560817564839,69.16666666666667 L68.91560817564839,60.50641262882228" />
<path d="M63.91560817564839,69.16666666666667 L58.91560817564839,77.82692070451105" />
<path d="M100,90 Q82.5,39.68911086754464 65.00000000000001,29.378221735089284" stroke-width="3"/>
<path d="M94.16666666666667,79.89637028918155 L102.82692070451105,74.89637028918155" />
<path d="M94.16666666666667,79.89637028918155 L85.50641262882229,84.89637028918155" />
<path d="M88.33333333333334,69.7927405783631 L96.99358737117774,64.7927405783631" />
<path d="M88.33333333333334,69.7927405783631 L79.67307929548895,74.7927405783631" />
<path d="M82.5,59.68911086754464 L91.1602540378444,54.68911086754464" />
<path d="M82.5,59.68911086754464 L73.8397459621556,64.68911086754464" />
<path d="M76.66666666666669,49.58548115672619 L85.32692070451108,44.58548115672619" />
<path d="M76.66666666666669,49.58548115672619 L68.00641262882229,54.58548115672619" />
<path d="M70.83333333333334,39.481851445907736 L79.49358737117774,34.481851445907736" />
<path d="M70.83333333333334,39.481851445907736 L62.173079295488954,44.481851445907736" />
<path d="M100,90 Q100.0,35.0 100.0,20.0" stroke-width="3"/>
<path d="M100.0,78.33333333333333 L110.0,78.33333333333333" />
<path d="M100.0,78.33333333333333 L90.0,78.33333333333333" />
<path d="M100.0,66.66666666666667 L110.0,66.66666666666667" />
<path d="M100.0,66.66666666666667 L90.0,66.66666666666667" />
<path d="M100.0,55.0 L110.0,55.0" />
<path d="M100.0,55.0 L90.0,55.0" />
<path d="M100.0,43.333333333333336 L110.0,43.333333333333336" />
<path d="M100.0,43.333333333333336 L90.0,43.333333333333336" />
<path d="M100.0,31.666666666666664 L110.0,31.666666666666664" />
<path d="M100.0,31.666666666666664 L90.0,31.666666666666664" />
<path d="M100,90 Q117.5,39.68911086754465 135.0,29.378221735089298" stroke-width="3"/>
<path d="M105.83333333333333,79.89637028918155 L114.49358737117771,84.89637028918155" />
<path d="M105.83333333333333,79.89637028918155 L97.17307929548895,74.89637028918155" />
<path d="M111.66666666666667,69.7927405783631 L120.32692070451105,74.7927405783631" />
<path d="M111.66666666666667,69.7927405783631 L103.00641262882229,64.7927405783631" />
<path d="M117.5,59.68911086754465 L126.16025403784438,64.68911086754466" />
<path d="M117.5,59.68911086754465 L108.83974596215562,54.68911086754465" />
<path d="M123.33333333333334,49.5854811567262 L131.99358737117774,54.5854811567262" />
<path d="M123.33333333333334,49.5854811567262 L114.67307929548896,44.5854811567262" />
<path d="M129.16666666666669,39.48185144590774 L137.82692070451108,44.48185144590774" />
<path d="M129.16666666666669,39.48185144590774 L120.5064126288223,34.48185144590774" />
<path d="M100,90 Q121.65063509461098,57.5 143.30127018922195,65.0" stroke-width="3"/>
<path d="M107.21687836487033,85.83333333333333 L112.21687836487033,94.49358737117771" />
<path d="M107.21687836487033,85.83333333333333 L102.21687836487033,77.17307929548895" />
<path d="M114.43375672974065,81.66666666666667 L119.43375672974065,90.32692070451105" />
<path d="M114.43375672974065,81.66666666666667 L109.43375672974065,73.00641262882229" />
<path d="M121.65063509461098,77.5 L126.65063509461098,86.16025403784438" />
<path d="M121.65063509461098,77.5 L116.65063509461098,68.83974596215562" />
<path d="M128.8675134594813,73.33333333333334 L133.8675134594813,81.99358737117772" />
<path d="M128.8675134594813,73.33333333333334 L123.8675134594813,64.67307929548896" />
<path d="M136.0843918243516,69.16666666666667 L141.0843918243516,77.82692070451105" />
<path d="M136.0843918243516,69.16666666666667 L131.0843918243516,60.50641262882228" />

</svg>