<svg xmlns="http://www.w3.org/2000/svg" viewBox="0 0 200 200" fill="none" stroke="#2c3a2f" stroke-width="2.5" stroke-linecap="round" stroke-linejoin="round">

<path d="M100,180 C100,140 100,100 100,40" stroke-width="4"/>
<path d="M100,180 C40,180 10,120 10,70 C10,20 60,10 100,40 C140,10 190,20 190,70 C190,120 160,180 100,180 Z" fill="#eef2eb" stroke-width="3"/>
<path d="M100,40 C100,40 100,180 100,180" />
<path d="M100,70 C70,60 40,55 20,50" />
<path d="M100,100 C60,95 30,95 15,90" />
<path d="M100,130 C60,130 30,135 20,140" />
<path d="M100,155 C70,160 40,165 30,170" />
<path d="M100,70 C130,60 160,55 180,50" />
<path d="M100,100 C140,95 170,95 185,90" />
<path d="M100,130 C140,130 170,135 180,140" />
<path d="M100,155 C130,160 160,165 170,170" />
<!-- Cutouts -->
<path d="M20,50 C30,65 50,70 70,70" />
<path d="M15,90 C30,105 50,110 70,110" />
<path d="M20,140 C40,145 60,145 70,140" />
<path d="M180,50 C170,65 150,70 130,70" />
<path d="M185,90 C170,105 150,110 130,110" />
<path d="M180,140 C160,145 140,145 130,140" />

</svg>