<svg xmlns="http://www.w3.org/2000/svg" viewBox="0 0 200 200" fill="none" stroke="#2c3a2f" stroke-width="2.5" stroke-linecap="round" stroke-linejoin="round">

<path d="M100,190 C100,100 100,40 100,10" stroke-width="4"/>
<path d="M100,169 Q87.5,161.5 75,149.0" />
<path d="M100,169 Q112.5,161.5 125,149.0" />
<path d="M100,158 Q85.0,149.0 70,134.0" />
<path d="M100,158 Q115.0,149.0 130,134.0" />
<path d="M100,147 Q82.5,136.5 65,119.0" />
<path d="M100,147 Q117.5,136.5 135,119.0" />
<path d="M100,136 Q80.0,124.0 60,104.0" />
<path d="M100,136 Q120.0,124.0 140,104.0" />
<path d="M100,125 Q77.5,111.5 55,89.0" />
<path d="M100,125 Q122.5,111.5 145,89.0" />
<path d="M100,114 Q75.0,99.0 50,74.0" />
<path d="M100,114 Q125.0,99.0 150,74.0" />
<path d="M100,103 Q72.5,86.5 45,59.0" />
<path d="M100,103 Q127.5,86.5 155,59.0" />
<path d="M100,92 Q70.0,74.0 40,44.0" />
<path d="M100,92 Q130.0,74.0 160,44.0" />
<path d="M100,81 Q72.5,64.5 45,37.0" />
<path d="M100,81 Q127.5,64.5 155,37.0" />
<path d="M100,70 Q75.0,55.0 50,30.0" />
<path d="M100,70 Q125.0,55.0 150,30.0" />
<path d="M100,59 Q77.5,45.5 55,23.0" />
<path d="M100,59 Q122.5,45.5 145,23.0" />
<path d="M100,48 Q80.0,36.0 60,16.0" />
<path d="M100,48 Q120.0,36.0 140,16.0" />
<path d="M100,37 Q82.5,26.5 65,9.0" />
<path d="M100,37 Q117.5,26.5 135,9.0" />
<path d="M100,26 Q85.0,17.0 70,2.0" />
<path d="M100,26 Q115.0,17.0 130,2.0" />

</svg>