<svg xmlns="http://www.w3.org/2000/svg" viewBox="0 0 200 200" fill="none" stroke="#2c3a2f" stroke-width="2.5" stroke-linecap="round" stroke-linejoin="round">

<path d="M100,100 C80,20 40,20 20,60 C40,70 70,80 100,100" fill="#eef2eb"/>
<path d="M100,100 C120,20 160,20 180,60 C160,70 130,80 100,100" fill="#eef2eb"/>
<path d="M100,100 C180,90 190,140 150,180 C130,150 110,130 100,100" fill="#eef2eb"/>
<path d="M100,100 C20,90 10,140 50,180 C70,150 90,130 100,100" fill="#eef2eb"/>
<path d="M100,100 C80,180 120,180 100,100" fill="#eef2eb"/>
<path d="M100,100 C80,100 60,60 50,40" stroke-width="3"/>
<circle cx="50" cy="40" r="4" fill="#2c3a2f"/>
<circle cx="42" cy="45" r="3" fill="#2c3a2f"/>
<circle cx="58" cy="35" r="3" fill="#2c3a2f"/>
<path d="M30,60 C50,55 70,70 100,100" />
<path d="M170,60 C150,55 130,70 100,100" />
<path d="M60,165 C75,140 85,120 100,100" />
<path d="M140,165 C125,140 115,120 100,100" />

</svg>